<svg width="116" height="53" viewBox="0 0 116 53" fill="none" xmlns="http://www.w3.org/2000/svg">
<path d="M34.0326 25.7827H22.4691L26.2735 21.9783C26.3819 21.8708 26.4679 21.7429 26.5266 21.602C26.5853 21.4611 26.6155 21.3099 26.6155 21.1573C26.6155 21.0046 26.5853 20.8535 26.5266 20.7126C26.4679 20.5717 26.3819 20.4438 26.2735 20.3363C26.0568 20.1209 25.7637 20 25.4582 20C25.1528 20 24.8597 20.1209 24.643 20.3363L19.6823 25.3086C19.2479 25.7403 19.0026 26.3267 19 26.9391C19.0056 27.5474 19.2507 28.1291 19.6823 28.558L24.643 33.5303C24.7508 33.6373 24.8787 33.7221 25.0193 33.7798C25.1598 33.8374 25.3104 33.8668 25.4623 33.8663C25.6143 33.8657 25.7646 33.8353 25.9048 33.7766C26.045 33.718 26.1722 33.6323 26.2793 33.5245C26.3863 33.4167 26.4711 33.2888 26.5287 33.1483C26.5864 33.0077 26.6158 32.8571 26.6152 32.7052C26.6147 32.5532 26.5843 32.4029 26.5256 32.2627C26.467 32.1226 26.3813 31.9953 26.2735 31.8883L22.4691 28.0954H34.0326C34.3393 28.0954 34.6334 27.9736 34.8503 27.7567C35.0672 27.5399 35.189 27.2457 35.189 26.9391C35.189 26.6324 35.0672 26.3382 34.8503 26.1214C34.6334 25.9045 34.3393 25.7827 34.0326 25.7827Z" fill="white"/>
<circle cx="26.5" cy="26.5" r="26" stroke="white"/>
<circle cx="26.5" cy="26.5" r="26.5" transform="matrix(-1 0 0 1 116 0)" fill="white"/>
<path d="M81.9674 25.7827H93.5309L89.7265 21.9783C89.6181 21.8708 89.5321 21.7429 89.4734 21.602C89.4147 21.4611 89.3845 21.3099 89.3845 21.1573C89.3845 21.0046 89.4147 20.8535 89.4734 20.7126C89.5321 20.5717 89.6181 20.4438 89.7265 20.3363C89.9432 20.1209 90.2363 20 90.5418 20C90.8472 20 91.1403 20.1209 91.357 20.3363L96.3177 25.3086C96.7521 25.7403 96.9974 26.3267 97 26.9391C96.9944 27.5474 96.7493 28.1291 96.3177 28.558L91.357 33.5303C91.2492 33.6373 91.1213 33.7221 90.9807 33.7798C90.8402 33.8374 90.6896 33.8668 90.5377 33.8663C90.3857 33.8657 90.2354 33.8353 90.0952 33.7766C89.955 33.718 89.8278 33.6323 89.7207 33.5245C89.6137 33.4167 89.5289 33.2888 89.4713 33.1483C89.4136 33.0077 89.3842 32.8571 89.3848 32.7052C89.3853 32.5532 89.4157 32.4029 89.4744 32.2627C89.533 32.1226 89.6187 31.9953 89.7265 31.8883L93.5309 28.0954H81.9674C81.6607 28.0954 81.3666 27.9736 81.1497 27.7567C80.9328 27.5399 80.811 27.2457 80.811 26.9391C80.811 26.6324 80.9328 26.3382 81.1497 26.1214C81.3666 25.9045 81.6607 25.7827 81.9674 25.7827Z" fill="#012758"/>
</svg>
